<?xml version="1.0" encoding="utf-8"?>
<!-- Generator: Adobe Illustrator 28.7.1, SVG Export Plug-In . SVG Version: 9.03 Build 54978)  -->
<svg version="1.0" id="Layer_1" xmlns="http://www.w3.org/2000/svg" xmlns:xlink="http://www.w3.org/1999/xlink" x="0px" y="0px"
	 viewBox="0 0 48 48" style="enable-background:new 0 0 48 48;" xml:space="preserve">
<style type="text/css">
	.st0{fill:#FFFFFF;}
	.st1{fill:#022222;}
</style>
<rect class="st0" width="48" height="48"/>
<path class="st0" d="M32.5,16.7c-1-0.3-2.5-0.8-4.1-0.8s-3.3,0.5-4.4,0.9l-5.8-2.6L17.8,14l-0.7,0.5v1.7c-0.6,0.1-1.2,0.3-1.6,0.5
	c-0.7,0.2-1.2,0.9-1.2,1.7v12.9c0,0.6,0.3,1.1,0.7,1.5c0.5,0.4,1.1,0.5,1.7,0.3c1.1-0.3,2-0.5,2.9-0.5c1.5,0,2.9,0.4,3.8,0.8h0.2
	l0.4,0.2l0.3-0.2h0.3c0.9-0.3,2.3-0.8,3.8-0.8s1.9,0.2,2.9,0.5c0.6,0.2,1.2,0,1.7-0.3s0.7-0.9,0.7-1.5V18.4
	C33.7,17.6,33.2,17,32.5,16.7z"/>
<g id="Layer_1-2_00000075857534151620246960000001807062428725459338_">
	<g id="Layer_1-2">
		<path class="st1" d="M32.5,16.7c-1-0.3-2.5-0.8-4.1-0.8c-1.6,0-3.3,0.5-4.4,0.9l0,0l-5.8-2.6L17.8,14l-0.7,0.5v1.7
			c-0.6,0.1-1.2,0.3-1.6,0.5c-0.7,0.2-1.2,0.9-1.2,1.7v12.9c0,0.6,0.3,1.1,0.7,1.5c0.5,0.4,1.1,0.5,1.7,0.3c1.1-0.3,2-0.5,2.9-0.5
			c1.5,0,2.9,0.4,3.8,0.8h0.2l0.4,0.2l0.3-0.2h0.3c0.9-0.3,2.3-0.8,3.8-0.8s1.9,0.2,2.9,0.5c0.6,0.2,1.2,0,1.7-0.3s0.7-0.9,0.7-1.5
			V18.4C33.7,17.6,33.2,17,32.5,16.7z M27.5,17.7h1.8v3.5l-0.9-0.3l-0.9,0.3V17.7z M18.5,16.1l4.6,2v13.3l-4.6-2
			C18.5,29.4,18.5,16.1,18.5,16.1z M15.7,31.5V18.4c0,0,0-0.1,0.1-0.2c0.3-0.1,0.7-0.2,1.1-0.3v12.6l1.2,0.5
			C17.4,31,15.7,31.5,15.7,31.5z M32.1,31.3v0.2h-0.2c-1.2-0.4-2.3-0.5-3.4-0.5c-1.1,0-2.7,0.3-3.7,0.6V18.3c0.5-0.2,1-0.3,1.6-0.5
			v5.1l2.1-0.7l2.1,0.7v-5.1c0.6,0.1,1.1,0.3,1.5,0.4V31.3L32.1,31.3z"/>
	</g>
</g>
</svg>
