<svg width="48" height="48" viewBox="0 0 48 48" fill="none" xmlns="http://www.w3.org/2000/svg">
<g clip-path="url(#clip0_11_22122)">
<rect x="12" y="12" width="24" height="24" fill="white"/>
<path d="M36 12H12V36H36V12Z" fill="white"/>
<path d="M28.46 16.5C26.9029 16.5 25.4702 16.8881 24.3279 17.2688C24.115 17.3398 23.885 17.3398 23.6721 17.2688C22.5298 16.8881 21.0971 16.5 19.54 16.5C18.0985 16.5 16.7656 16.8327 15.6698 17.1866C15.2664 17.317 15 17.6974 15 18.1214V30.0867C15 30.7766 15.6812 31.2551 16.3454 31.0681C17.296 30.8005 18.383 30.5862 19.54 30.5862C21.0971 30.5862 22.5298 30.9743 23.6721 31.355C23.885 31.426 24.115 31.426 24.3279 31.355C25.4702 30.9743 26.9029 30.5862 28.46 30.5862C29.617 30.5862 30.704 30.8005 31.6546 31.0681C32.3188 31.2551 33 30.7766 33 30.0867V18.1214C33 17.6974 32.7336 17.317 32.3302 17.1866C31.2344 16.8327 29.9015 16.5 28.46 16.5Z" stroke="#444444" stroke-width="1.6"/>
<path d="M24 31.5V17.5" stroke="#444444" stroke-width="1.4939" stroke-linecap="round" stroke-linejoin="round"/>
<path d="M28 22.5L29 20.8053L30 22.5V16.7105C29.6667 16.6368 29.3265 16.5 28.9728 16.5C28.6327 16.5 28.3129 16.6263 28 16.7V22.5Z" fill="#444444" stroke="#444444" stroke-width="0.6" stroke-linecap="round" stroke-linejoin="round"/>
<path d="M21.46 21.0099C20.89 20.9199 20.29 20.8599 19.66 20.8599C18.92 20.8599 18.21 20.9399 17.54 21.0599" stroke="#444444" stroke-width="1.3593" stroke-linecap="round" stroke-linejoin="round"/>
<path d="M19.66 23.6799C18.92 23.6799 18.21 23.7599 17.54 23.8799" stroke="#444444" stroke-width="1.3593" stroke-linecap="round" stroke-linejoin="round"/>
</g>
<rect x="6" y="6" width="36" height="36" stroke="white" stroke-width="12"/>
<defs>
<clipPath id="clip0_11_22122">
<rect x="12" y="12" width="24" height="24" fill="white"/>
</clipPath>
</defs>
</svg>
