<svg width="48" height="48" viewBox="0 0 48 48" fill="none" xmlns="http://www.w3.org/2000/svg">
<rect x="6" y="6" width="36" height="36" fill="white"/>
<rect x="6" y="6" width="36" height="36" stroke="white" stroke-width="12"/>
<path d="M36 12H12V36H36V12Z" fill="white"/>
<path d="M28.46 16.04C26.75 16.04 25.19 16.46 24 16.83C22.81 16.46 21.25 16.04 19.54 16.04C17.79 16.04 16.2 16.48 15 16.86V30.5C16.2 30.12 17.79 29.68 19.54 29.68C21.25 29.68 22.81 30.1 24 30.47C25.19 30.1 26.75 29.68 28.46 29.68C30.21 29.68 31.8 30.12 33 30.5V16.86C31.8 16.48 30.21 16.04 28.46 16.04Z" stroke="#444444" stroke-width="1.6" stroke-linecap="round" stroke-linejoin="round"/>
<path d="M24 31.9301V16.8301" stroke="#444444" stroke-width="1.6" stroke-linecap="round" stroke-linejoin="round"/>
<path d="M27.0298 21.74L28.4998 20.13L29.9698 21.74V16.24C29.4798 16.17 28.9798 16.04 28.4598 16.04C27.9598 16.04 27.4898 16.16 27.0298 16.23V21.74Z" fill="#444444" stroke="#444444" stroke-width="0.4" stroke-linecap="round" stroke-linejoin="round"/>
<path d="M21.46 22.5101C20.89 22.4201 20.29 22.3601 19.66 22.3601C18.92 22.3601 18.21 22.4401 17.54 22.5601" stroke="#444444" stroke-width="1.4" stroke-linecap="round" stroke-linejoin="round"/>
<path d="M21.46 25.68C20.89 25.59 20.29 25.53 19.66 25.53C18.92 25.53 18.21 25.61 17.54 25.73" stroke="#444444" stroke-width="1.4" stroke-linecap="round" stroke-linejoin="round"/>
<path d="M33 30.78V32.96C31.8 32.58 30.21 32.14 28.46 32.14C26.75 32.14 25.19 32.56 24 32.93C22.81 32.56 21.25 32.14 19.54 32.14C17.79 32.14 16.2 32.58 15 32.96V30.78" stroke="#444444" stroke-width="1.6" stroke-linecap="round" stroke-linejoin="round"/>
</svg>
