<svg width="48" height="48" viewBox="0 0 48 48" fill="none" xmlns="http://www.w3.org/2000/svg">
<g clip-path="url(#clip0_11_22128)">
<rect x="12" y="12" width="24" height="24" fill="white"/>
<path d="M36 12H12V36H36V12Z" fill="white"/>
<path d="M33 29.4699C31.8 29.0899 30.21 28.6499 28.46 28.6499C26.75 28.6499 25.19 29.0699 24 29.4399C22.81 29.0699 21.25 28.6499 19.54 28.6499C17.79 28.6499 16.2 29.0899 15 29.4699" stroke="#444444" stroke-width="1.4939" stroke-linecap="round" stroke-linejoin="round"/>
<path d="M23.7158 16.6699C23.9017 16.7234 24.0983 16.7234 24.2842 16.6701C25.4335 16.3406 26.883 16.0002 28.46 16.0002C29.8823 16.0002 31.199 16.2771 32.2865 16.5753C32.7118 16.6919 33 17.0833 33 17.5243V30.6537C33 31.3242 32.354 31.8009 31.7025 31.6423C30.7405 31.4081 29.6364 31.2186 28.46 31.2186C26.883 31.2186 25.4335 31.559 24.2842 31.8885C24.0983 31.9418 23.9017 31.9418 23.7158 31.8885C22.5665 31.559 21.117 31.2186 19.54 31.2186C18.3636 31.2186 17.2595 31.4081 16.2975 31.6423C15.646 31.8009 15 31.3242 15 30.6537V17.5243C15 17.0833 15.2882 16.6919 15.7135 16.5753C16.801 16.2771 18.1177 16.0002 19.54 16.0002C21.1171 15.9914 22.5665 16.3392 23.7158 16.6699Z" stroke="#444444" stroke-width="1.6"/>
<path d="M24 32L24 17" stroke="#444444" stroke-width="1.4939" stroke-linecap="round" stroke-linejoin="round"/>
<path d="M30.1299 21.46L28.4999 19.92L26.8799 21.47V16.18C27.3899 16.11 27.9099 16 28.4599 16C29.0399 16 29.5899 16.12 30.1299 16.19V21.46Z" fill="#444444" stroke="#444444" stroke-width="0.5" stroke-linecap="round" stroke-linejoin="round"/>
</g>
<rect x="6" y="6" width="36" height="36" stroke="white" stroke-width="12"/>
<defs>
<clipPath id="clip0_11_22128">
<rect x="12" y="12" width="24" height="24" fill="white"/>
</clipPath>
</defs>
</svg>
