<svg width="48" height="48" viewBox="0 0 48 48" fill="none" xmlns="http://www.w3.org/2000/svg">
<rect x="6" y="6" width="36" height="36" fill="white"/>
<rect x="6" y="6" width="36" height="36" stroke="white" stroke-width="12"/>
<path d="M36 12H12V36H36V12Z" fill="white"/>
<path d="M28.46 15.7C26.9114 15.7 25.4858 16.1083 24.3466 16.5112C24.1223 16.5905 23.8777 16.5905 23.6534 16.5112C22.5142 16.1083 21.0886 15.7 19.54 15.7C18.0904 15.7 16.7506 16.0579 15.6513 16.4368C15.2573 16.5726 15 16.9481 15 17.3648V30.2564C15 30.9547 15.6968 31.4338 16.3661 31.2343C17.3118 30.9525 18.3914 30.7278 19.54 30.7278C21.0886 30.7278 22.5142 31.1362 23.6534 31.5391C23.8777 31.6184 24.1223 31.6184 24.3466 31.5391C25.4858 31.1362 26.9114 30.7278 28.46 30.7278C29.6086 30.7278 30.6882 30.9525 31.6339 31.2343C32.3032 31.4338 33 30.9547 33 30.2564V17.3648C33 16.9481 32.7427 16.5726 32.3487 16.4368C31.2494 16.0579 29.9096 15.7 28.46 15.7Z" stroke="#444444" stroke-width="1.6"/>
<path d="M24 32V17" stroke="#444444" stroke-width="1.6"/>
<path d="M27 21L28.4592 20.2L30 21V16.117C29.5 16.076 28.9898 16 28.4592 16C27.949 16 27.4694 16.0702 27 16.1111V21Z" fill="#444444" stroke="#444444" stroke-width="0.6"/>
</svg>
