<svg width="48" height="48" viewBox="0 0 48 48" fill="none" xmlns="http://www.w3.org/2000/svg">
<rect x="6" y="6" width="36" height="36" fill="white"/>
<rect x="6" y="6" width="36" height="36" stroke="white" stroke-width="12"/>
<path d="M36 12H12V36H36V12Z" fill="white"/>
<path d="M15 17.5V30.4C15 30.46 15.04 30.5 15.1 30.5H32.9C32.96 30.5 33 30.46 33 30.4V17.5" stroke="#444444" stroke-width="1.5"/>
<path d="M15 15.74L14.8 15.02L14.25 15.17V15.74H15ZM15 29H14.25V29.98L15.2 29.72L15 29ZM24 29L23.8 29.72L24 29.77L24.2 29.72L24 29ZM33 29L32.8 29.72L33.75 29.98V29H33ZM33 15.74H33.75V15.16L33.2 15.01L33 15.74ZM24 15.74L23.8 16.46L24 16.51L24.2 16.46L24 15.74ZM15 15.74C15.2 16.46 15.2 16.46 15.2 16.46C15.2 16.46 15.21 16.46 15.22 16.45C15.24 16.44 15.27 16.44 15.3 16.43C15.37 16.41 15.48 16.38 15.62 16.35C15.89 16.28 16.28 16.19 16.72 16.1C17.61 15.92 18.68 15.75 19.49 15.75V14.25C18.51 14.25 17.33 14.45 16.42 14.63C15.96 14.72 15.55 14.82 15.26 14.89C15.12 14.93 15 14.96 14.92 14.98C14.89 14.99 14.86 15 14.84 15C14.83 15 14.82 15.01 14.81 15.01H14.8C14.8 15.01 14.8 15.01 15 15.74ZM15.75 29V15.74H14.25V29H15.75ZM19.5 27.51C18.52 27.51 17.34 27.71 16.43 27.89C15.97 27.98 15.56 28.08 15.27 28.15C15.13 28.19 15.01 28.22 14.93 28.24C14.89 28.25 14.86 28.26 14.84 28.26C14.83 28.26 14.82 28.27 14.81 28.27H14.8C14.8 28.27 14.8 28.27 15 28.99C15.2 29.71 15.2 29.71 15.2 29.71C15.2 29.71 15.21 29.71 15.22 29.7C15.24 29.69 15.27 29.69 15.3 29.68C15.37 29.66 15.48 29.63 15.62 29.6C15.89 29.53 16.28 29.44 16.72 29.35C17.61 29.17 18.68 29 19.49 29V27.51H19.5ZM24 29C24.2 28.28 24.2 28.28 24.2 28.28C24.2 28.28 24.2 28.28 24.19 28.28C24.18 28.28 24.18 28.28 24.16 28.27C24.14 28.26 24.11 28.26 24.07 28.25C23.99 28.23 23.87 28.2 23.73 28.16C23.44 28.09 23.04 27.99 22.57 27.9C21.66 27.71 20.47 27.52 19.5 27.52V29.02C20.32 29.02 21.38 29.19 22.27 29.37C22.71 29.46 23.09 29.55 23.37 29.62C23.51 29.65 23.62 29.68 23.69 29.7C23.73 29.71 23.76 29.72 23.77 29.72C23.78 29.72 23.79 29.72 23.79 29.73C23.8 29.72 23.8 29.72 24 29ZM28.5 27.51C27.52 27.51 26.34 27.71 25.43 27.89C24.97 27.98 24.56 28.08 24.27 28.15C24.13 28.19 24.01 28.22 23.93 28.24C23.89 28.25 23.86 28.26 23.84 28.26C23.83 28.26 23.82 28.27 23.81 28.27H23.8C23.8 28.27 23.8 28.27 24 28.99C24.2 29.71 24.2 29.71 24.2 29.71C24.2 29.71 24.21 29.71 24.22 29.7C24.24 29.69 24.27 29.69 24.3 29.68C24.37 29.66 24.48 29.63 24.62 29.6C24.89 29.53 25.28 29.44 25.72 29.35C26.61 29.17 27.68 29 28.49 29V27.51H28.5ZM33 29C33.2 28.28 33.2 28.28 33.2 28.28C33.2 28.28 33.2 28.28 33.19 28.28C33.18 28.28 33.18 28.28 33.17 28.27C33.15 28.26 33.12 28.26 33.08 28.25C33 28.23 32.88 28.2 32.74 28.16C32.45 28.09 32.05 27.99 31.59 27.9C30.68 27.71 29.49 27.52 28.52 27.52V29.02C29.34 29.02 30.4 29.19 31.29 29.37C31.73 29.46 32.11 29.55 32.39 29.62C32.53 29.65 32.64 29.68 32.71 29.7C32.75 29.71 32.78 29.72 32.79 29.72C32.8 29.72 32.81 29.72 32.81 29.73C32.81 29.73 32.81 29.73 32.82 29.73C32.8 29.72 32.8 29.72 33 29ZM32.25 15.74V29H33.75V15.74H32.25ZM28.5 15.75C29.32 15.75 30.38 15.92 31.27 16.1C31.71 16.19 32.09 16.28 32.37 16.35C32.51 16.38 32.62 16.41 32.69 16.43C32.73 16.44 32.76 16.45 32.77 16.45C32.78 16.45 32.79 16.45 32.79 16.46C32.79 16.46 32.79 16.46 32.8 16.46C32.8 16.46 32.8 16.46 33 15.74C33.2 15.02 33.2 15.02 33.2 15.02C33.2 15.02 33.2 15.02 33.19 15.02C33.18 15.02 33.18 15.02 33.17 15.01C33.15 15 33.12 15 33.08 14.99C33 14.97 32.88 14.94 32.74 14.9C32.45 14.83 32.05 14.73 31.59 14.64C30.68 14.45 29.49 14.26 28.52 14.26V15.75H28.5ZM24 15.74C24.2 16.46 24.2 16.46 24.2 16.46C24.2 16.46 24.21 16.46 24.22 16.45C24.24 16.44 24.27 16.44 24.3 16.43C24.37 16.41 24.48 16.38 24.62 16.35C24.89 16.28 25.28 16.19 25.72 16.1C26.61 15.92 27.68 15.75 28.49 15.75V14.25C27.51 14.25 26.33 14.45 25.42 14.63C24.96 14.72 24.55 14.82 24.26 14.89C24.12 14.93 24 14.96 23.92 14.98C23.89 14.99 23.86 15 23.84 15C23.83 15 23.82 15.01 23.81 15.01H23.8C23.8 15.01 23.8 15.01 24 15.74ZM19.5 15.75C20.32 15.75 21.38 15.92 22.27 16.1C22.71 16.19 23.09 16.28 23.37 16.35C23.51 16.38 23.62 16.41 23.69 16.43C23.73 16.44 23.76 16.45 23.77 16.45C23.78 16.45 23.79 16.45 23.79 16.46C23.79 16.46 23.79 16.46 23.99 15.74C24.19 15.02 24.19 15.02 24.19 15.02C24.19 15.02 24.19 15.02 24.18 15.02C24.17 15.02 24.17 15.02 24.15 15.01C24.13 15 24.1 15 24.06 14.99C23.98 14.97 23.86 14.94 23.72 14.9C23.43 14.83 23.03 14.73 22.56 14.64C21.65 14.45 20.46 14.26 19.49 14.26V15.75H19.5Z" fill="#444444"/>
<path d="M24 15V29" stroke="#444444" stroke-width="1.5"/>
<path d="M28 15H31V19L29.5 18.21L28 19V15Z" fill="#444444"/>
</svg>
