<svg width="48" height="48" viewBox="0 0 48 48" fill="none" xmlns="http://www.w3.org/2000/svg">
<rect x="6" y="6" width="36" height="36" fill="white"/>
<rect x="6" y="6" width="36" height="36" stroke="white" stroke-width="12"/>
<path d="M36 12H12V36H36V12Z" fill="white"/>
<path d="M15 32.0001V16.4201C16.2 16.0401 17.79 15.6001 19.54 15.6001C21.25 15.6001 22.81 16.0201 24 16.3901C25.19 16.0201 26.75 15.6001 28.46 15.6001C30.21 15.6001 31.8 16.0401 33 16.4201V32.0001" stroke="#444444" stroke-width="1.4939" stroke-linecap="round" stroke-linejoin="round"/>
<path d="M24 31.04C22.81 30.67 21.25 30.25 19.54 30.25C17.79 30.25 16.2 30.69 15 31.07V32.4H33V31.06C31.8 30.68 30.21 30.24 28.46 30.24C26.75 30.24 25.19 30.67 24 31.04Z" stroke="#444444" stroke-width="1.4939" stroke-linecap="round" stroke-linejoin="round"/>
<path d="M24 30.3701V16.3901" stroke="#444444" stroke-width="1.4939" stroke-linecap="round" stroke-linejoin="round"/>
<path d="M26.8701 21.0601L28.5001 19.5201L30.1301 21.0601V15.7901C29.5901 15.7201 29.0401 15.6001 28.4601 15.6001C27.9101 15.6001 27.3901 15.7101 26.8801 15.7801V21.0601H26.8701Z" fill="#444444" stroke="#444444" stroke-width="0.6" stroke-linecap="round" stroke-linejoin="round"/>
<path d="M21.46 22.38C20.89 22.29 20.29 22.23 19.66 22.23C18.92 22.23 18.21 22.31 17.54 22.43" stroke="#444444" stroke-width="1.3593" stroke-linecap="round" stroke-linejoin="round"/>
<path d="M21.46 19.2201C20.89 19.1301 20.29 19.0701 19.66 19.0701C18.92 19.0701 18.21 19.1501 17.54 19.2701" stroke="#444444" stroke-width="1.3593" stroke-linecap="round" stroke-linejoin="round"/>
</svg>
