<svg width="48" height="48" viewBox="0 0 48 48" fill="none" xmlns="http://www.w3.org/2000/svg">
<g clip-path="url(#clip0_11_22105)">
<rect x="12" y="12" width="24" height="24" fill="white"/>
<path d="M36 12H12V36H36V12Z" fill="white"/>
<path d="M28.46 17.0901C26.75 17.0901 25.19 17.5101 24 17.8801C22.81 17.5101 21.25 17.0901 19.54 17.0901C17.79 17.0901 16.2 17.5201 15 17.9001V31.5401C16.2 31.1601 17.79 30.7201 19.54 30.7201C21.25 30.7201 22.81 31.1401 24 31.5101C25.19 31.1401 26.75 30.7201 28.46 30.7201C30.21 30.7201 31.8 31.1601 33 31.5401V17.9001C31.8 17.5201 30.21 17.0901 28.46 17.0901Z" stroke="#444444" stroke-width="1.4939"/>
<path d="M24 31.5199V17.8799" stroke="#444444" stroke-width="1.4939"/>
<path d="M16.8901 31.0301V17.3901" stroke="#444444" stroke-width="1.4939"/>
<path d="M27.02 21.1701L28.49 20.0101L29.96 21.1701V17.2301C29.47 17.1801 28.97 17.0901 28.45 17.0901C27.95 17.0901 27.48 17.1801 27.02 17.2201V21.1701Z" fill="#444444" stroke="#444444" stroke-width="0.5928"/>
</g>
<rect x="6" y="6" width="36" height="36" stroke="white" stroke-width="12"/>
<defs>
<clipPath id="clip0_11_22105">
<rect x="12" y="12" width="24" height="24" fill="white"/>
</clipPath>
</defs>
</svg>
