<svg width="32" height="32" viewBox="0 0 32 32" fill="none" xmlns="http://www.w3.org/2000/svg">
<path d="M24.4998 8.7C23.4998 8.4 21.9998 7.9 20.3998 7.9C18.7998 7.9 17.0998 8.4 15.9998 8.8L10.1998 6.2L9.7998 6L9.0998 6.5V8.2C8.4998 8.3 7.8998 8.5 7.4998 8.7C6.7998 8.9 6.2998 9.6 6.2998 10.4V23.3C6.2998 23.9 6.5998 24.4 6.9998 24.8C7.4998 25.2 8.09981 25.3 8.69981 25.1C9.79981 24.8 10.6998 24.6 11.5998 24.6C13.0998 24.6 14.4998 25 15.3998 25.4H15.5998L15.9998 25.6L16.2998 25.4H16.5998C17.4998 25.1 18.8998 24.6 20.3998 24.6C21.8998 24.6 22.2998 24.8 23.2998 25.1C23.8998 25.3 24.4998 25.1 24.9998 24.8C25.4998 24.5 25.6998 23.9 25.6998 23.3V10.4C25.6998 9.6 25.1998 9 24.4998 8.7Z" fill="white"/>
<path d="M24.4998 8.7C23.4998 8.4 21.9998 7.9 20.3998 7.9C18.7998 7.9 17.0998 8.4 15.9998 8.8L10.1998 6.2L9.7998 6L9.0998 6.5V8.2C8.4998 8.3 7.8998 8.5 7.4998 8.7C6.7998 8.9 6.2998 9.6 6.2998 10.4V23.3C6.2998 23.9 6.5998 24.4 6.9998 24.8C7.4998 25.2 8.09981 25.3 8.69981 25.1C9.79981 24.8 10.6998 24.6 11.5998 24.6C13.0998 24.6 14.4998 25 15.3998 25.4H15.5998L15.9998 25.6L16.2998 25.4H16.5998C17.4998 25.1 18.8998 24.6 20.3998 24.6C21.8998 24.6 22.2998 24.8 23.2998 25.1C23.8998 25.3 24.4998 25.1 24.9998 24.8C25.4998 24.5 25.6998 23.9 25.6998 23.3V10.4C25.6998 9.6 25.1998 9 24.4998 8.7ZM19.4998 9.7H21.2998V13.2L20.3998 12.9L19.4998 13.2V9.7ZM10.4998 8.1L15.0998 10.1V23.4L10.4998 21.4V8.1ZM7.6998 23.5V10.4C7.6998 10.4 7.6998 10.3 7.7998 10.2C8.0998 10.1 8.4998 10 8.8998 9.9V22.5L10.0998 23C9.3998 23 7.6998 23.5 7.6998 23.5ZM24.0998 23.3V23.5H23.8998C22.6998 23.1 21.5998 23 20.4998 23C19.3998 23 17.7998 23.3 16.7998 23.6V10.3C17.2998 10.1 17.7998 10 18.3998 9.8V14.9L20.4998 14.2L22.5998 14.9V9.8C23.1998 9.9 23.6998 10.1 24.0998 10.2V23.3Z" fill="#022222"/>
</svg>
