<svg width="24" height="24" viewBox="0 0 24 24" fill="none" xmlns="http://www.w3.org/2000/svg">
<rect width="24" height="24" rx="2" fill="#222222"/>
<path fill-rule="evenodd" clip-rule="evenodd" d="M11.9997 8.75C10.2048 8.75 8.74968 10.2051 8.74968 12C8.74968 13.7949 10.2048 15.25 11.9997 15.25C13.7946 15.25 15.2497 13.7949 15.2497 12C15.2497 10.2051 13.7946 8.75 11.9997 8.75ZM10.2497 12C10.2497 11.0335 11.0332 10.25 11.9997 10.25C12.9662 10.25 13.7497 11.0335 13.7497 12C13.7497 12.9665 12.9662 13.75 11.9997 13.75C11.0332 13.75 10.2497 12.9665 10.2497 12Z" fill="white"/>
<path fill-rule="evenodd" clip-rule="evenodd" d="M11.9997 5.75C8.54959 5.75 5.48265 7.82486 2.79167 11.8613L2.69922 12L2.79167 12.1387C5.48265 16.1751 8.54959 18.25 11.9997 18.25C15.4498 18.25 18.5167 16.1751 21.2077 12.1387L21.3001 12L21.2077 11.8613C18.5167 7.82486 15.4498 5.75 11.9997 5.75ZM11.9997 16.75C9.34426 16.75 6.85667 15.2344 4.52061 12C6.85667 8.76559 9.34426 7.25 11.9997 7.25C14.6551 7.25 17.1427 8.76559 19.4787 12C17.1427 15.2344 14.6551 16.75 11.9997 16.75Z" fill="white"/>
</svg>
