<svg width="24" height="24" viewBox="0 0 24 24" fill="none" xmlns="http://www.w3.org/2000/svg">
<path d="M19.6901 5.61V4.31H18.3901C18.3901 4.71 18.0601 5.04 17.6601 5.04C17.2601 5.04 16.9301 4.71 16.9301 4.31H16.1301C16.1301 4.71 15.8001 5.04 15.4001 5.04C15.0001 5.04 14.6701 4.71 14.6701 4.31H13.8701C13.8701 4.71 13.5401 5.04 13.1401 5.04C12.7401 5.04 12.4101 4.71 12.4101 4.31H11.6101C11.6101 4.71 11.2801 5.04 10.8801 5.04C10.4801 5.04 10.1501 4.71 10.1501 4.31H9.35008C9.35008 4.71 9.02008 5.04 8.62008 5.04C8.22008 5.04 7.89008 4.71 7.89008 4.31H7.09008C7.09008 4.71 6.76008 5.04 6.36008 5.04C5.96008 5.04 5.63008 4.71 5.63008 4.31H4.33008V5.61C4.73008 5.61 5.06008 5.94 5.06008 6.34C5.06008 6.74 4.73008 7.07 4.33008 7.07V7.87C4.73008 7.87 5.06008 8.2 5.06008 8.6C5.06008 9 4.73008 9.33 4.33008 9.33V10.13C4.73008 10.13 5.06008 10.46 5.06008 10.86C5.06008 11.26 4.73008 11.59 4.33008 11.59V12.39C4.73008 12.39 5.06008 12.72 5.06008 13.12C5.06008 13.52 4.73008 13.85 4.33008 13.85V14.65C4.73008 14.65 5.06008 14.98 5.06008 15.38C5.06008 15.78 4.73008 16.11 4.33008 16.11V16.91C4.73008 16.91 5.06008 17.24 5.06008 17.64C5.06008 18.04 4.73008 18.37 4.33008 18.37V19.67H5.63008C5.63008 19.27 5.96008 18.94 6.36008 18.94C6.76008 18.94 7.09008 19.27 7.09008 19.67H7.89008C7.89008 19.27 8.22008 18.94 8.62008 18.94C9.02008 18.94 9.35008 19.27 9.35008 19.67H10.1501C10.1501 19.27 10.4801 18.94 10.8801 18.94C11.2801 18.94 11.6101 19.27 11.6101 19.67H12.4101C12.4101 19.27 12.7401 18.94 13.1401 18.94C13.5401 18.94 13.8701 19.27 13.8701 19.67H14.6701C14.6701 19.27 15.0001 18.94 15.4001 18.94C15.8001 18.94 16.1301 19.27 16.1301 19.67H16.9301C16.9301 19.27 17.2601 18.94 17.6601 18.94C18.0601 18.94 18.3901 19.27 18.3901 19.67H19.6901V18.37C19.2901 18.37 18.9601 18.04 18.9601 17.64C18.9601 17.24 19.2901 16.91 19.6901 16.91V16.11C19.4601 16.11 19.2601 15.99 19.1201 15.82C19.0301 15.86 18.9501 15.91 18.8301 15.98C18.6601 16.08 18.4601 16.19 18.2301 16.3V18.22H5.76008V5.76H18.2301V7.53C18.6101 7.39 19.0801 7.29 19.6801 7.29V7.07C19.2801 7.07 18.9501 6.74 18.9501 6.34C18.9501 5.94 19.2801 5.61 19.6801 5.61H19.6901Z" fill="#222222"/>
<path d="M21.13 9.71C21.58 9.98 22.08 10.28 23.05 10.28V9.28C22.36 9.28 22.04 9.09 21.64 8.85C21.19 8.58 20.69 8.28 19.72 8.28C18.75 8.28 18.24 8.58 17.8 8.85C17.4 9.09 17.09 9.28 16.39 9.28C15.69 9.28 15.38 9.09 14.99 8.85C14.54 8.58 14.04 8.28 13.07 8.28C12.1 8.28 11.6 8.58 11.15 8.85C10.75 9.09 10.44 9.28 9.75 9.28V10.28C10.72 10.28 11.22 9.98 11.67 9.71C12.07 9.47 12.38 9.28 13.08 9.28C13.78 9.28 14.09 9.47 14.48 9.71C14.93 9.98 15.43 10.28 16.4 10.28C17.37 10.28 17.88 9.98 18.32 9.71C18.72 9.47 19.03 9.28 19.73 9.28C20.43 9.28 20.74 9.47 21.14 9.71H21.13Z" fill="#222222"/>
<path d="M21.13 12.43C21.58 12.7 22.08 13 23.05 13V12C22.36 12 22.04 11.81 21.64 11.57C21.19 11.3 20.69 11 19.72 11C18.75 11 18.25 11.3 17.8 11.57C17.4 11.81 17.09 12 16.39 12C15.69 12 15.38 11.81 14.99 11.57C14.54 11.3 14.04 11 13.07 11C12.1 11 11.6 11.3 11.15 11.57C10.75 11.81 10.44 12 9.75 12V13C10.72 13 11.22 12.7 11.67 12.43C12.07 12.19 12.38 12 13.08 12C13.78 12 14.09 12.19 14.48 12.43C14.93 12.7 15.43 13 16.4 13C17.37 13 17.87 12.7 18.32 12.43C18.72 12.19 19.03 12 19.73 12C20.43 12 20.74 12.19 21.14 12.43H21.13Z" fill="#222222"/>
<path d="M21.13 15.14C21.58 15.41 22.08 15.71 23.05 15.71V14.71C22.36 14.71 22.04 14.52 21.64 14.28C21.19 14.01 20.69 13.71 19.72 13.71C18.75 13.71 18.24 14.01 17.8 14.28C17.4 14.52 17.09 14.71 16.39 14.71C15.69 14.71 15.38 14.52 14.99 14.28C14.54 14.01 14.04 13.71 13.07 13.71C12.1 13.71 11.6 14.01 11.15 14.28C10.75 14.52 10.44 14.71 9.75 14.71V15.71C10.72 15.71 11.22 15.41 11.67 15.14C12.07 14.9 12.38 14.71 13.08 14.71C13.78 14.71 14.09 14.9 14.48 15.14C14.93 15.41 15.43 15.71 16.4 15.71C17.37 15.71 17.88 15.41 18.32 15.14C18.72 14.9 19.03 14.71 19.73 14.71C20.43 14.71 20.74 14.9 21.14 15.14H21.13Z" fill="#222222"/>
</svg>
