<svg width="24" height="24" viewBox="0 0 24 24" fill="none" xmlns="http://www.w3.org/2000/svg">
<path d="M11.9999 18.08C15.3578 18.08 18.0799 15.3579 18.0799 12C18.0799 8.64211 15.3578 5.92 11.9999 5.92C8.64203 5.92 5.91992 8.64211 5.91992 12C5.91992 15.3579 8.64203 18.08 11.9999 18.08Z" stroke="#222222" stroke-width="0.75"/>
<path d="M12.9504 12L17.3504 17.35L12.0004 12.95L6.65039 17.35L11.0504 12L6.65039 6.64999L12.0004 11.05L17.3504 6.64999L12.9504 12Z" fill="#222222" stroke="#222222" stroke-width="0.5" stroke-linejoin="round"/>
<path d="M13.83 10.17L21.75 12L13.83 13.83L12 21.75L10.17 13.83L2.25 12L10.17 10.17L12 2.25L13.83 10.17Z" fill="#222222" stroke="#222222" stroke-width="0.5" stroke-linejoin="round"/>
<path d="M12 14C13.1046 14 14 13.1046 14 12C14 10.8954 13.1046 10 12 10C10.8954 10 10 10.8954 10 12C10 13.1046 10.8954 14 12 14Z" fill="white"/>
</svg>
