<svg width="24" height="24" viewBox="0 0 24 24" fill="none" xmlns="http://www.w3.org/2000/svg">
<path fill-rule="evenodd" clip-rule="evenodd" d="M12 5.08C13.19 4.65 14.75 4.17 16.46 4.17C18.21 4.17 19.8 4.66 21 5.1V19.54C19.8 19.1 18.17 18.6 16.46 18.6C14.75 18.6 13.19 19.09 12 19.51C10.81 19.08 9.29 18.6 7.54 18.6C5.79 18.6 4.2 19.1 3 19.54V5.1C4.2 4.66 5.83 4.17 7.54 4.17C9.25 4.17 10.81 4.66 12 5.08ZM20 5.81C18.99 5.48 17.76 5.17 16.46 5.17C14.93 5.17 13.52 5.6 12.34 6.02L12 6.14L11.66 6.02C10.9529 5.76617 10.1581 5.50868 9.3 5.34467V10.69L8.03 10.19L6.76 10.69H6.75V5.20664C5.74456 5.29804 4.80279 5.5477 4 5.81V18.16C5.04 17.85 6.25 17.6 7.54 17.6C9.23 17.6 10.78 18.03 12 18.45C13.22 18.03 14.77 17.6 16.46 17.6C17.75 17.6 18.96 17.85 20 18.16V5.81Z" fill="#222222"/>
<path d="M11.9996 19.04V5.34M4.88965 18.57V4.98M18.9396 8.03C18.0796 7.84 17.1196 7.69 16.1096 7.69C15.0996 7.69 14.1796 7.83 13.3396 8.02M18.9396 10C18.0796 9.81 17.1196 9.66 16.1096 9.66C15.0996 9.66 14.1796 9.8 13.3396 9.99M18.9396 11.97C18.0796 11.78 17.1196 11.63 16.1096 11.63C15.0996 11.63 14.1796 11.77 13.3396 11.96M18.9396 13.94C18.0796 13.75 17.1196 13.6 16.1096 13.6C15.0996 13.6 14.1796 13.74 13.3396 13.93M18.9396 15.91C18.0796 15.72 17.1196 15.57 16.1096 15.57C15.0996 15.57 14.1796 15.71 13.3396 15.9" stroke="#222222" stroke-width="0.75"/>
</svg>
