<svg width="300" height="74" viewBox="0 0 300 74" fill="none" xmlns="http://www.w3.org/2000/svg">
<path d="M169.78 24.18C171.26 25.01 172.4 26.08 173.2 27.38C174 28.68 174.53 30.14 174.79 31.75C175.05 33.36 175.18 34.97 175.18 36.56C175.18 38.38 175.03 40.15 174.74 41.86C174.45 43.57 173.89 45.08 173.08 46.4C172.27 47.72 171.12 48.77 169.64 49.55C168.16 50.33 166.23 50.72 163.85 50.72C163.65 50.72 163.4 50.72 163.09 50.7C162.927 50.6895 162.764 50.6817 162.599 50.6739C162.449 50.6667 162.297 50.6595 162.14 50.65C161.82 50.63 161.5 50.62 161.19 50.6C160.88 50.59 160.64 50.56 160.48 50.53V23.18C160.93 23.08 161.51 23.01 162.21 22.98C162.91 22.95 163.48 22.93 163.94 22.93C166.35 22.93 168.3 23.35 169.78 24.18Z" fill="#222222"/>
<path fill-rule="evenodd" clip-rule="evenodd" d="M0 73.12V0H299.59V73.12H0ZM20.14 53.9H41.62V41.79H38.01V50.29H24.19V19.71H20.14V53.9ZM75.46 47.84C75.99 46.35 76.26 44.57 76.26 42.52L76.25 42.51V19.7H72.39V41.39C72.39 44.72 71.82 47.1 70.7 48.55C69.58 50 67.7 50.72 65.06 50.72C63.69 50.72 62.5 50.56 61.47 50.23C60.44 49.9 59.6 49.37 58.93 48.64C58.27 47.91 57.76 46.95 57.42 45.76C57.08 44.57 56.91 43.12 56.91 41.39V19.7H52.86V43.29C52.86 47 53.88 49.77 55.91 51.59C57.94 53.42 60.97 54.33 65 54.33C66.69 54.33 68.23 54.11 69.63 53.65C71.03 53.2 72.21 52.49 73.19 51.53C74.17 50.57 74.92 49.34 75.46 47.84ZM88.52 53.9H110V41.79H106.39V50.29H92.57V19.71H88.52V53.9ZM122.71 53.9H144.19V41.79H140.58V50.29H126.76V19.71H122.71V53.9ZM176.16 48.9C177.36 47.25 178.2 45.36 178.69 43.23C179.18 41.1 179.42 38.87 179.42 36.56C179.42 34.02 179.16 31.7 178.62 29.58C178.09 27.46 177.21 25.64 175.99 24.13C174.77 22.62 173.16 21.44 171.16 20.59C169.16 19.74 166.69 19.32 163.73 19.32C162.79 19.32 161.64 19.34 160.29 19.39C158.94 19.44 157.65 19.55 156.41 19.71V53.96C156.73 54.03 157.22 54.08 157.87 54.11C158.52 54.14 159.2 54.18 159.92 54.23C160.64 54.28 161.34 54.31 162.02 54.33C162.7 54.35 163.26 54.35 163.68 54.35C166.74 54.35 169.28 53.85 171.31 52.86C173.34 51.86 174.96 50.54 176.16 48.9ZM212.23 47.84C212.76 46.35 213.03 44.57 213.03 42.52L213.02 42.51V19.7H209.16V41.39C209.16 44.72 208.59 47.1 207.47 48.55C206.35 50 204.47 50.72 201.83 50.72C200.46 50.72 199.27 50.56 198.24 50.23C197.21 49.9 196.37 49.37 195.7 48.64C195.04 47.91 194.53 46.95 194.19 45.76C193.85 44.57 193.68 43.12 193.68 41.39V19.7H189.63V43.29C189.63 47 190.65 49.77 192.68 51.59C194.71 53.42 197.74 54.33 201.77 54.33C203.46 54.33 205 54.11 206.4 53.65C207.8 53.2 208.98 52.49 209.96 51.53C210.94 50.57 211.69 49.34 212.23 47.84ZM225.29 53.9H246.78V41.79H243.16V50.29H229.34V19.71H225.29V53.9ZM259.48 53.9H280.97V41.79H277.35V50.29H263.53V19.71H259.48V53.9Z" fill="#222222"/>
</svg>
