<svg width="24" height="24" viewBox="0 0 24 24" fill="none" xmlns="http://www.w3.org/2000/svg">
<path d="M6.85969 11.4845C7.00669 11.3382 7.24369 11.3382 7.39069 11.4845L11.6242 15.7197L11.625 5.625C11.625 5.41789 11.7929 5.25 12 5.25C12.2071 5.25 12.375 5.41789 12.375 5.625L12.3742 15.7213L16.6097 11.4845C16.7567 11.3382 16.9937 11.3382 17.1407 11.4845C17.2869 11.6315 17.2869 11.8685 17.1407 12.0155L12.2657 16.8905C12.1922 16.9633 12.0962 17 12.0002 17C11.9042 17 11.8082 16.9633 11.7347 16.8905L6.85969 12.0155C6.71344 11.8685 6.71344 11.6315 6.85969 11.4845Z" fill="#111111"/>
</svg>
