<svg width="400" height="98" viewBox="0 0 400 98" fill="none" xmlns="http://www.w3.org/2000/svg">
<path d="M16 17H382V85H16V17Z" fill="white"/>
<path d="M226.683 32.2595C228.659 33.3669 230.181 34.7944 231.249 36.5288C232.318 38.2632 233.025 40.211 233.372 42.359C233.719 44.507 233.893 46.6549 233.893 48.7762C233.893 51.2044 233.693 53.5658 233.306 55.8472C232.918 58.1286 232.171 60.1431 231.089 61.9042C230.008 63.6652 228.472 65.0661 226.496 66.1067C224.52 67.1473 221.943 67.6677 218.766 67.6677C218.499 67.6677 218.165 67.6677 217.751 67.641C217.533 67.627 217.316 67.6166 217.095 67.6062C216.895 67.5966 216.692 67.5869 216.483 67.5743C216.055 67.5476 215.628 67.5342 215.214 67.5076C214.8 67.4942 214.48 67.4542 214.266 67.4142V30.9254C214.867 30.792 215.641 30.6986 216.576 30.6586C217.511 30.6185 218.272 30.5919 218.886 30.5919C222.104 30.5919 224.707 31.1522 226.683 32.2595Z" fill="#222222"/>
<path fill-rule="evenodd" clip-rule="evenodd" d="M0 97.5524V0H400V97.5524H0ZM26.8901 71.9102H55.5693V55.7538H50.7494V67.094H32.2975V26.2959H26.8901V71.9102ZM100.751 63.8253C101.459 61.8375 101.819 59.4627 101.819 56.7277L101.806 56.7144V26.2826H96.6521V55.2201C96.6521 59.6628 95.891 62.8381 94.3957 64.7726C92.9003 66.7071 90.3902 67.6677 86.8654 67.6677C85.0362 67.6677 83.4474 67.4542 82.0722 67.0139C80.697 66.5737 79.5754 65.8666 78.6809 64.8926C77.7997 63.9187 77.1187 62.6379 76.6648 61.0503C76.2108 59.4627 75.9838 57.5282 75.9838 55.2201V26.2826H70.5765V57.755C70.5765 62.7047 71.9383 66.4002 74.6487 68.8284C77.3591 71.2698 81.4046 72.4839 86.7853 72.4839C89.0417 72.4839 91.0978 72.1904 92.9671 71.5767C94.8363 70.9763 96.4118 70.0291 97.7202 68.7483C99.0287 67.4675 100.03 65.8265 100.751 63.8253ZM118.188 71.9102H146.867V55.7538H142.047V67.094H123.596V26.2959H118.188V71.9102ZM163.837 71.9102H192.516V55.7538H187.697V67.094H169.245V26.2959H163.837V71.9102ZM235.201 65.2395C236.804 63.0382 237.925 60.5167 238.579 57.6749C239.234 54.8332 239.554 51.8581 239.554 48.7762C239.554 45.3875 239.207 42.2923 238.486 39.4639C237.778 36.6355 236.603 34.2074 234.974 32.1928C233.346 30.1783 231.196 28.604 228.526 27.47C225.855 26.336 222.557 25.7756 218.605 25.7756C217.35 25.7756 215.815 25.8023 214.012 25.869C212.21 25.9357 210.488 26.0825 208.832 26.2959V71.9903C209.259 72.0837 209.914 72.1504 210.781 72.1904C211.649 72.2304 212.557 72.2838 213.518 72.3505C214.48 72.4172 215.414 72.4572 216.322 72.4839C217.23 72.5106 217.978 72.5106 218.539 72.5106C222.624 72.5106 226.016 71.8435 228.726 70.5227C231.436 69.1886 233.599 67.4275 235.201 65.2395ZM283.361 63.8253C284.068 61.8375 284.429 59.4627 284.429 56.7277L284.415 56.7144V26.2826H279.262V55.2201C279.262 59.6628 278.501 62.8381 277.005 64.7726C275.51 66.7071 273 67.6677 269.475 67.6677C267.646 67.6677 266.057 67.4542 264.682 67.0139C263.307 66.5737 262.185 65.8666 261.29 64.8926C260.409 63.9187 259.728 62.6379 259.274 61.0503C258.82 59.4627 258.593 57.5282 258.593 55.2201V26.2826H253.186V57.755C253.186 62.7047 254.548 66.4002 257.258 68.8284C259.969 71.2698 264.014 72.4839 269.395 72.4839C271.651 72.4839 273.707 72.1904 275.577 71.5767C277.446 70.9763 279.021 70.0291 280.33 68.7483C281.638 67.4675 282.64 65.8265 283.361 63.8253ZM300.798 71.9102H329.49V55.7538H324.657V67.094H306.205V26.2959H300.798V71.9102ZM346.447 71.9102H375.139V55.7538H370.306V67.094H351.854V26.2959H346.447V71.9102Z" fill="#222222"/>
</svg>
